<svg version="1.1" id="Layer_1" xmlns="http://www.w3.org/2000/svg" xmlns:xlink="http://www.w3.org/1999/xlink" viewBox="0 0 491.52 491.52" xml:space="preserve">
	<g>
		<path d="M245.762,305.336c6.615-8.397,17.285-35.635,19.886-80.056h-39.772C228.477,269.701,239.147,296.939,245.762,305.336z"/>
		<path d="M225.876,184.32h39.772c-2.601-44.421-13.271-71.659-19.886-80.056C239.147,112.66,228.477,139.899,225.876,184.32z"/>
		<path d="M295.596,115.896c6.144,20.029,9.748,43.848,11.018,68.424h39.465C340.079,154.808,321.073,130.253,295.596,115.896z"/>
		<path d="M145.441,184.32h39.465c1.27-24.576,4.874-48.394,11.018-68.424C170.447,130.253,151.441,154.808,145.441,184.32z"/>
		<path d="M389.12,0H61.44C50.115,0,40.96,9.175,40.96,20.48v450.56c0,11.305,9.155,20.48,20.48,20.48h327.68
			c33.874,0,61.44-27.566,61.44-61.44V61.44C450.56,27.566,422.994,0,389.12,0z M348.16,430.08h-204.8
			c-11.325,0-20.48-9.175-20.48-20.48c0-11.305,9.155-20.48,20.48-20.48h204.8c11.325,0,20.48,9.175,20.48,20.48
			C368.64,420.905,359.485,430.08,348.16,430.08z M245.76,348.16c-79.032,0-143.36-64.307-143.36-143.36
			S166.728,61.44,245.76,61.44s143.36,64.307,143.36,143.36S324.792,348.16,245.76,348.16z"/>
		<path d="M295.596,293.704c25.477-14.356,44.483-38.912,50.483-68.424h-39.465C305.345,249.856,301.74,273.674,295.596,293.704z"
			/>
		<path d="M145.441,225.28c6.001,29.512,25.006,54.067,50.483,68.424c-6.144-20.029-9.748-43.848-11.018-68.424H145.441z"/>
	</g>
</svg>
